<svg width="162" height="100" viewBox="0 0 162 100" fill="none" xmlns="http://www.w3.org/2000/svg">
<path d="M132 60C148.569 60 162 46.5685 162 30C162 13.4315 148.569 0 132 0C115.431 0 102 13.4315 102 30C102 46.5685 115.431 60 132 60Z" fill="white"/>
<path d="M140.286 30.2857L127.428 40.678V19.8934L140.286 30.2857Z" fill="#103178"/>
<path d="M50 100C77.6142 100 100 77.6142 100 50C100 22.3858 77.6142 0 50 0C22.3858 0 0 22.3858 0 50C0 77.6142 22.3858 100 50 100Z" fill="white"/>
<path d="M63.8094 50.4762L42.3809 67.7967V33.1558L63.8094 50.4762Z" fill="#103178"/>
</svg>
