<svg width="120" height="150" viewBox="0 0 120 150" fill="none" xmlns="http://www.w3.org/2000/svg">
<path d="M0 125.5C0 124.672 0.671573 124 1.5 124H13.5C14.3284 124 15 124.672 15 125.5C15 126.328 14.3284 127 13.5 127H1.5C0.671573 127 0 126.328 0 125.5Z" fill="#103178"/>
<path d="M0 131.5C0 130.672 0.671573 130 1.5 130H13.5C14.3284 130 15 130.672 15 131.5C15 132.328 14.3284 133 13.5 133H1.5C0.671573 133 0 132.328 0 131.5Z" fill="#103178"/>
<path d="M0 137.5C0 136.672 0.671573 136 1.5 136H13.5C14.3284 136 15 136.672 15 137.5C15 138.328 14.3284 139 13.5 139H1.5C0.671573 139 0 138.328 0 137.5Z" fill="#103178"/>
<path d="M35 127C35 125.343 36.3431 124 38 124C39.6569 124 41 125.343 41 127C41 128.657 39.6569 130 38 130C36.3431 130 35 128.657 35 127Z" fill="#103178"/>
<path d="M44 127C44 125.343 45.3431 124 47 124C48.6569 124 50 125.343 50 127C50 128.657 48.6569 130 47 130C45.3431 130 44 128.657 44 127Z" fill="#103178"/>
<path d="M35 136C35 134.343 36.3431 133 38 133C39.6569 133 41 134.343 41 136C41 137.657 39.6569 139 38 139C36.3431 139 35 137.657 35 136Z" fill="#103178"/>
<path d="M44 136C44 134.343 45.3431 133 47 133C48.6569 133 50 134.343 50 136C50 137.657 48.6569 139 47 139C45.3431 139 44 137.657 44 136Z" fill="#103178"/>
<path d="M70 125.5C70 124.672 70.6716 124 71.5 124C72.3284 124 73 124.672 73 125.5C73 126.328 72.3284 127 71.5 127C70.6716 127 70 126.328 70 125.5Z" fill="#103178"/>
<path d="M76 125.5C76 124.672 76.6716 124 77.5 124C78.3284 124 79 124.672 79 125.5C79 126.328 78.3284 127 77.5 127C76.6716 127 76 126.328 76 125.5Z" fill="#103178"/>
<path d="M82 125.5C82 124.672 82.6716 124 83.5 124C84.3284 124 85 124.672 85 125.5C85 126.328 84.3284 127 83.5 127C82.6716 127 82 126.328 82 125.5Z" fill="#103178"/>
<path d="M70 131.5C70 130.672 70.6716 130 71.5 130C72.3284 130 73 130.672 73 131.5C73 132.328 72.3284 133 71.5 133C70.6716 133 70 132.328 70 131.5Z" fill="#103178"/>
<path d="M76 131.5C76 130.672 76.6716 130 77.5 130C78.3284 130 79 130.672 79 131.5C79 132.328 78.3284 133 77.5 133C76.6716 133 76 132.328 76 131.5Z" fill="#103178"/>
<path d="M82 131.5C82 130.672 82.6716 130 83.5 130C84.3284 130 85 130.672 85 131.5C85 132.328 84.3284 133 83.5 133C82.6716 133 82 132.328 82 131.5Z" fill="#103178"/>
<path d="M70 137.5C70 136.672 70.6716 136 71.5 136C72.3284 136 73 136.672 73 137.5C73 138.328 72.3284 139 71.5 139C70.6716 139 70 138.328 70 137.5Z" fill="#103178"/>
<path d="M76 137.5C76 136.672 76.6716 136 77.5 136C78.3284 136 79 136.672 79 137.5C79 138.328 78.3284 139 77.5 139C76.6716 139 76 138.328 76 137.5Z" fill="#103178"/>
<path d="M82 137.5C82 136.672 82.6716 136 83.5 136C84.3284 136 85 136.672 85 137.5C85 138.328 84.3284 139 83.5 139C82.6716 139 82 138.328 82 137.5Z" fill="#103178"/>
<path d="M105 125.5C105 124.672 105.672 124 106.5 124C107.328 124 108 124.672 108 125.5C108 126.328 107.328 127 106.5 127C105.672 127 105 126.328 105 125.5Z" fill="#103178"/>
<path d="M109 125.5C109 124.672 109.672 124 110.5 124C111.328 124 112 124.672 112 125.5C112 126.328 111.328 127 110.5 127C109.672 127 109 126.328 109 125.5Z" fill="#103178"/>
<path d="M113 125.5C113 124.672 113.672 124 114.5 124C115.328 124 116 124.672 116 125.5C116 126.328 115.328 127 114.5 127C113.672 127 113 126.328 113 125.5Z" fill="#103178"/>
<path d="M117 125.5C117 124.672 117.672 124 118.5 124C119.328 124 120 124.672 120 125.5C120 126.328 119.328 127 118.5 127C117.672 127 117 126.328 117 125.5Z" fill="#103178"/>
<path d="M105 129.5C105 128.672 105.672 128 106.5 128C107.328 128 108 128.672 108 129.5C108 130.328 107.328 131 106.5 131C105.672 131 105 130.328 105 129.5Z" fill="#103178"/>
<path d="M109 129.5C109 128.672 109.672 128 110.5 128C111.328 128 112 128.672 112 129.5C112 130.328 111.328 131 110.5 131C109.672 131 109 130.328 109 129.5Z" fill="#103178"/>
<path d="M113 129.5C113 128.672 113.672 128 114.5 128C115.328 128 116 128.672 116 129.5C116 130.328 115.328 131 114.5 131C113.672 131 113 130.328 113 129.5Z" fill="#103178"/>
<path d="M117 129.5C117 128.672 117.672 128 118.5 128C119.328 128 120 128.672 120 129.5C120 130.328 119.328 131 118.5 131C117.672 131 117 130.328 117 129.5Z" fill="#103178"/>
<path d="M105 133.5C105 132.672 105.672 132 106.5 132C107.328 132 108 132.672 108 133.5C108 134.328 107.328 135 106.5 135C105.672 135 105 134.328 105 133.5Z" fill="#103178"/>
<path d="M105 137.5C105 136.672 105.672 136 106.5 136C107.328 136 108 136.672 108 137.5C108 138.328 107.328 139 106.5 139C105.672 139 105 138.328 105 137.5Z" fill="#103178"/>
<path d="M109 133.5C109 132.672 109.672 132 110.5 132C111.328 132 112 132.672 112 133.5C112 134.328 111.328 135 110.5 135C109.672 135 109 134.328 109 133.5Z" fill="#103178"/>
<path d="M109 137.5C109 136.672 109.672 136 110.5 136C111.328 136 112 136.672 112 137.5C112 138.328 111.328 139 110.5 139C109.672 139 109 138.328 109 137.5Z" fill="#103178"/>
<path d="M113 133.5C113 132.672 113.672 132 114.5 132C115.328 132 116 132.672 116 133.5C116 134.328 115.328 135 114.5 135C113.672 135 113 134.328 113 133.5Z" fill="#103178"/>
<path d="M113 137.5C113 136.672 113.672 136 114.5 136C115.328 136 116 136.672 116 137.5C116 138.328 115.328 139 114.5 139C113.672 139 113 138.328 113 137.5Z" fill="#103178"/>
<path d="M117 133.5C117 132.672 117.672 132 118.5 132C119.328 132 120 132.672 120 133.5C120 134.328 119.328 135 118.5 135C117.672 135 117 134.328 117 133.5Z" fill="#103178"/>
<path d="M117 137.5C117 136.672 117.672 136 118.5 136C119.328 136 120 136.672 120 137.5C120 138.328 119.328 139 118.5 139C117.672 139 117 138.328 117 137.5Z" fill="#103178"/>
<path d="M0 107.5C0 106.672 0.671573 106 1.5 106H13.5C14.3284 106 15 106.672 15 107.5C15 108.328 14.3284 109 13.5 109H1.5C0.671573 109 0 108.328 0 107.5Z" fill="#9BABCD"/>
<path d="M0 113.5C0 112.672 0.671573 112 1.5 112H13.5C14.3284 112 15 112.672 15 113.5C15 114.328 14.3284 115 13.5 115H1.5C0.671573 115 0 114.328 0 113.5Z" fill="#9BABCD"/>
<path d="M0 119.5C0 118.672 0.671573 118 1.5 118H13.5C14.3284 118 15 118.672 15 119.5C15 120.328 14.3284 121 13.5 121H1.5C0.671573 121 0 120.328 0 119.5Z" fill="#9BABCD"/>
<path d="M35 109C35 107.343 36.3431 106 38 106C39.6569 106 41 107.343 41 109C41 110.657 39.6569 112 38 112C36.3431 112 35 110.657 35 109Z" fill="#9BABCD"/>
<path d="M44 109C44 107.343 45.3431 106 47 106C48.6569 106 50 107.343 50 109C50 110.657 48.6569 112 47 112C45.3431 112 44 110.657 44 109Z" fill="#9BABCD"/>
<path d="M35 118C35 116.343 36.3431 115 38 115C39.6569 115 41 116.343 41 118C41 119.657 39.6569 121 38 121C36.3431 121 35 119.657 35 118Z" fill="#9BABCD"/>
<path d="M44 118C44 116.343 45.3431 115 47 115C48.6569 115 50 116.343 50 118C50 119.657 48.6569 121 47 121C45.3431 121 44 119.657 44 118Z" fill="#9BABCD"/>
<path d="M70 107.5C70 106.672 70.6716 106 71.5 106C72.3284 106 73 106.672 73 107.5C73 108.328 72.3284 109 71.5 109C70.6716 109 70 108.328 70 107.5Z" fill="#9BABCD"/>
<path d="M76 107.5C76 106.672 76.6716 106 77.5 106C78.3284 106 79 106.672 79 107.5C79 108.328 78.3284 109 77.5 109C76.6716 109 76 108.328 76 107.5Z" fill="#9BABCD"/>
<path d="M82 107.5C82 106.672 82.6716 106 83.5 106C84.3284 106 85 106.672 85 107.5C85 108.328 84.3284 109 83.5 109C82.6716 109 82 108.328 82 107.5Z" fill="#9BABCD"/>
<path d="M70 113.5C70 112.672 70.6716 112 71.5 112C72.3284 112 73 112.672 73 113.5C73 114.328 72.3284 115 71.5 115C70.6716 115 70 114.328 70 113.5Z" fill="#9BABCD"/>
<path d="M76 113.5C76 112.672 76.6716 112 77.5 112C78.3284 112 79 112.672 79 113.5C79 114.328 78.3284 115 77.5 115C76.6716 115 76 114.328 76 113.5Z" fill="#9BABCD"/>
<path d="M82 113.5C82 112.672 82.6716 112 83.5 112C84.3284 112 85 112.672 85 113.5C85 114.328 84.3284 115 83.5 115C82.6716 115 82 114.328 82 113.5Z" fill="#9BABCD"/>
<path d="M70 119.5C70 118.672 70.6716 118 71.5 118C72.3284 118 73 118.672 73 119.5C73 120.328 72.3284 121 71.5 121C70.6716 121 70 120.328 70 119.5Z" fill="#9BABCD"/>
<path d="M76 119.5C76 118.672 76.6716 118 77.5 118C78.3284 118 79 118.672 79 119.5C79 120.328 78.3284 121 77.5 121C76.6716 121 76 120.328 76 119.5Z" fill="#9BABCD"/>
<path d="M82 119.5C82 118.672 82.6716 118 83.5 118C84.3284 118 85 118.672 85 119.5C85 120.328 84.3284 121 83.5 121C82.6716 121 82 120.328 82 119.5Z" fill="#9BABCD"/>
<path d="M105 107.5C105 106.672 105.672 106 106.5 106C107.328 106 108 106.672 108 107.5C108 108.328 107.328 109 106.5 109C105.672 109 105 108.328 105 107.5Z" fill="#9BABCD"/>
<path d="M109 107.5C109 106.672 109.672 106 110.5 106C111.328 106 112 106.672 112 107.5C112 108.328 111.328 109 110.5 109C109.672 109 109 108.328 109 107.5Z" fill="#9BABCD"/>
<path d="M113 107.5C113 106.672 113.672 106 114.5 106C115.328 106 116 106.672 116 107.5C116 108.328 115.328 109 114.5 109C113.672 109 113 108.328 113 107.5Z" fill="#9BABCD"/>
<path d="M117 107.5C117 106.672 117.672 106 118.5 106C119.328 106 120 106.672 120 107.5C120 108.328 119.328 109 118.5 109C117.672 109 117 108.328 117 107.5Z" fill="#9BABCD"/>
<path d="M105 111.5C105 110.672 105.672 110 106.5 110C107.328 110 108 110.672 108 111.5C108 112.328 107.328 113 106.5 113C105.672 113 105 112.328 105 111.5Z" fill="#9BABCD"/>
<path d="M109 111.5C109 110.672 109.672 110 110.5 110C111.328 110 112 110.672 112 111.5C112 112.328 111.328 113 110.5 113C109.672 113 109 112.328 109 111.5Z" fill="#9BABCD"/>
<path d="M113 111.5C113 110.672 113.672 110 114.5 110C115.328 110 116 110.672 116 111.5C116 112.328 115.328 113 114.5 113C113.672 113 113 112.328 113 111.5Z" fill="#9BABCD"/>
<path d="M117 111.5C117 110.672 117.672 110 118.5 110C119.328 110 120 110.672 120 111.5C120 112.328 119.328 113 118.5 113C117.672 113 117 112.328 117 111.5Z" fill="#9BABCD"/>
<path d="M105 115.5C105 114.672 105.672 114 106.5 114C107.328 114 108 114.672 108 115.5C108 116.328 107.328 117 106.5 117C105.672 117 105 116.328 105 115.5Z" fill="#9BABCD"/>
<path d="M105 119.5C105 118.672 105.672 118 106.5 118C107.328 118 108 118.672 108 119.5C108 120.328 107.328 121 106.5 121C105.672 121 105 120.328 105 119.5Z" fill="#9BABCD"/>
<path d="M109 115.5C109 114.672 109.672 114 110.5 114C111.328 114 112 114.672 112 115.5C112 116.328 111.328 117 110.5 117C109.672 117 109 116.328 109 115.5Z" fill="#9BABCD"/>
<path d="M109 119.5C109 118.672 109.672 118 110.5 118C111.328 118 112 118.672 112 119.5C112 120.328 111.328 121 110.5 121C109.672 121 109 120.328 109 119.5Z" fill="#9BABCD"/>
<path d="M113 115.5C113 114.672 113.672 114 114.5 114C115.328 114 116 114.672 116 115.5C116 116.328 115.328 117 114.5 117C113.672 117 113 116.328 113 115.5Z" fill="#9BABCD"/>
<path d="M113 119.5C113 118.672 113.672 118 114.5 118C115.328 118 116 118.672 116 119.5C116 120.328 115.328 121 114.5 121C113.672 121 113 120.328 113 119.5Z" fill="#9BABCD"/>
<path d="M117 115.5C117 114.672 117.672 114 118.5 114C119.328 114 120 114.672 120 115.5C120 116.328 119.328 117 118.5 117C117.672 117 117 116.328 117 115.5Z" fill="#9BABCD"/>
<path d="M117 119.5C117 118.672 117.672 118 118.5 118C119.328 118 120 118.672 120 119.5C120 120.328 119.328 121 118.5 121C117.672 121 117 120.328 117 119.5Z" fill="#9BABCD"/>
<path d="M58 0C48.0742 0 40 8.07497 40 18C40 27.925 48.0742 36 58 36C67.9258 36 76 27.925 76 18C76 8.07497 67.9258 0 58 0ZM58 34.5C48.9018 34.5 41.5 27.0982 41.5 18C41.5 8.90184 48.9018 1.49998 58 1.49998C67.0982 1.49998 74.5 8.90184 74.5 18C74.5 27.0982 67.0982 34.5 58 34.5Z" fill="#103178"/>
<path d="M65.1558 17.3694L54.6558 10.6194C54.4258 10.4693 54.1285 10.4612 53.8911 10.5916C53.6494 10.7234 53.5 10.9754 53.5 11.25V24.75C53.5 25.0247 53.6494 25.2767 53.8911 25.4085C54.0025 25.4693 54.127 25.5001 54.25 25.5001C54.3906 25.5001 54.5328 25.4605 54.6558 25.3807L65.1558 18.6307C65.3697 18.493 65.5 18.2549 65.5 18C65.5 17.7452 65.3697 17.5072 65.1558 17.3694ZM55 23.376V12.6241L63.3628 18L55 23.376Z" fill="#FF9923"/>
<g clip-path="url(#clip0)">
<path d="M7.45204 30.6668C6.75053 30.1022 6.09114 29.4748 5.49194 28.8021C5.23199 28.5105 4.78544 28.485 4.49448 28.7444C4.20297 29.0039 4.1773 29.4505 4.43669 29.7418C5.08764 30.4727 5.80412 31.1542 6.5661 31.7675C6.69667 31.8725 6.85311 31.9236 7.0085 31.9236C7.21515 31.9236 7.4199 31.8334 7.5594 31.6601C7.80409 31.3561 7.75593 30.9114 7.45204 30.6668Z" fill="#5B6C8F"/>
<path d="M12.1544 33.3035C11.3075 33.0004 10.4792 32.6231 9.69286 32.1819C9.3524 31.9911 8.92202 32.1124 8.73112 32.4525C8.54015 32.7928 8.6613 33.2234 9.00154 33.4144C9.85668 33.894 10.757 34.3043 11.6779 34.634C11.7567 34.6621 11.8371 34.6755 11.9161 34.6755C12.2061 34.6755 12.4779 34.4956 12.5812 34.2069C12.7128 33.8395 12.5215 33.4351 12.1544 33.3035Z" fill="#5B6C8F"/>
<path d="M3.86681 26.6405C3.38714 25.8779 2.96871 25.0705 2.6232 24.2407C2.47329 23.8807 2.0595 23.7102 1.69957 23.8601C1.33929 24.01 1.16885 24.4236 1.3189 24.7839C1.69437 25.6861 2.14922 26.5638 2.6708 27.3928C2.80503 27.6063 3.0346 27.7232 3.26944 27.7232C3.3979 27.7232 3.52819 27.6882 3.64491 27.6147C3.97531 27.4069 4.07466 26.9708 3.86681 26.6405Z" fill="#5B6C8F"/>
<path d="M1.4862 12.7573C1.11017 12.6526 0.720566 12.8723 0.615871 13.2481C0.353676 14.1891 0.168613 15.1611 0.0661678 16.1371C0.0254569 16.5251 0.307129 16.8727 0.695043 16.9134C0.720215 16.9161 0.745035 16.9174 0.769715 16.9174C1.12676 16.9174 1.43339 16.6475 1.4715 16.2846C1.56565 15.3869 1.73574 14.493 1.97705 13.6276C2.08182 13.2517 1.86202 12.8621 1.4862 12.7573Z" fill="#5B6C8F"/>
<path d="M1.79737 21.6667C1.59571 20.792 1.46605 19.8916 1.41184 18.9904C1.38836 18.6009 1.0555 18.3052 0.664139 18.3276C0.274678 18.3511 -0.0221817 18.6858 0.00130267 19.0752C0.0602949 20.0546 0.201412 21.0332 0.420576 21.9841C0.49581 22.311 0.786623 22.5321 1.1083 22.5321C1.1609 22.5321 1.2144 22.5261 1.26763 22.5139C1.64781 22.4262 1.88497 22.047 1.79737 21.6667Z" fill="#5B6C8F"/>
<path d="M32.1891 26.7265C31.8632 26.5117 31.4252 26.6021 31.2104 26.9279C30.7156 27.6792 30.1535 28.3951 29.54 29.0558C29.2743 29.3417 29.2909 29.7887 29.5769 30.0542C29.7128 30.1805 29.8853 30.243 30.0574 30.243C30.2469 30.243 30.436 30.1672 30.5752 30.0173C31.2418 29.2995 31.8525 28.5216 32.3905 27.705C32.6052 27.3793 32.5149 26.9411 32.1891 26.7265Z" fill="#5B6C8F"/>
<path d="M17.4598 34.2487C16.556 34.2394 15.6499 34.155 14.7668 33.9981C14.3813 33.9293 14.0158 34.1858 13.9475 34.5701C13.8793 34.9543 14.1353 35.3211 14.5195 35.3894C15.4792 35.5599 16.4635 35.6515 17.4452 35.6617C17.4476 35.6617 17.4501 35.6617 17.4526 35.6617C17.8393 35.6617 18.155 35.3502 18.1589 34.9626C18.163 34.5723 17.85 34.2527 17.4598 34.2487Z" fill="#5B6C8F"/>
<path d="M28.532 31.0074C28.2936 30.6983 27.8503 30.6408 27.5413 30.8791C26.8274 31.4292 26.0631 31.9228 25.2692 32.3465C24.9251 32.5302 24.7949 32.9583 24.9786 33.3024C25.1059 33.5407 25.3501 33.6765 25.6026 33.6765C25.7148 33.6765 25.8286 33.6496 25.9346 33.5931C26.7974 33.1327 27.628 32.5961 28.4037 31.9984C28.7128 31.7601 28.7702 31.3165 28.532 31.0074Z" fill="#5B6C8F"/>
<path d="M23.68 33.8612C23.5563 33.4912 23.1551 33.2918 22.786 33.4152C21.9331 33.7002 21.0492 33.9152 20.1586 34.0543C19.7731 34.1144 19.5094 34.4757 19.5696 34.8613C19.6241 35.2099 19.9245 35.4589 20.2667 35.4589C20.303 35.4589 20.3397 35.4561 20.3766 35.4504C21.3449 35.2992 22.3064 35.0653 23.2338 34.7553C23.604 34.6316 23.8037 34.2313 23.68 33.8612Z" fill="#5B6C8F"/>
<path d="M35.4763 6.77064C35.0994 6.66981 34.7121 6.89326 34.6111 7.27021L33.7009 10.6669C30.8549 4.42501 24.6012 0.338379 17.6314 0.338379C11.0847 0.338379 5.106 3.93184 2.02877 9.71659C1.84539 10.0611 1.97618 10.4888 2.32064 10.6721C2.66559 10.8555 3.09316 10.7246 3.27618 10.3801C6.1076 5.05768 11.6082 1.75131 17.6315 1.75131C24.2719 1.75131 30.206 5.78289 32.683 11.8733L28.5544 10.767C28.1775 10.6657 27.7901 10.8896 27.6892 11.2666C27.5881 11.6434 27.8118 12.0308 28.1887 12.1318L33.6479 13.5946C33.7091 13.611 33.7707 13.6189 33.8313 13.6189C34.1431 13.6189 34.4286 13.4107 34.5131 13.095L35.9759 7.63583C36.0769 7.25896 35.8532 6.8716 35.4763 6.77064Z" fill="#103178"/>
</g>
<path d="M10.8503 23.3431C9.87745 23.3431 8.97934 22.7752 8.56239 21.8957C8.42894 21.615 8.54868 21.2793 8.82937 21.1464C9.11118 21.0135 9.44573 21.1332 9.57862 21.4134C9.81044 21.9023 10.3097 22.2181 10.8503 22.2181C11.6259 22.2181 12.2565 21.5875 12.2565 20.8119C12.2565 20.0363 11.6259 19.4056 10.8503 19.4056C10.5394 19.4056 10.2878 19.1541 10.2878 18.8431C10.2878 18.5322 10.5394 18.2806 10.8503 18.2806C12.2461 18.2806 13.3815 19.416 13.3815 20.8119C13.3815 22.2077 12.2461 23.3431 10.8503 23.3431Z" fill="#FF9923"/>
<path d="M22.1003 23.3431C20.7045 23.3431 19.5691 22.2077 19.5691 20.8119V18.8431C19.5691 18.5322 19.8207 18.2806 20.1316 18.2806C20.4425 18.2806 20.6941 18.5322 20.6941 18.8431V20.8119C20.6941 21.5875 21.3247 22.2181 22.1003 22.2181C22.876 22.2181 23.5066 21.5875 23.5066 20.8119V18.8431C23.5066 18.5322 23.7582 18.2806 24.0691 18.2806C24.38 18.2806 24.6316 18.5322 24.6316 18.8431V20.8119C24.6316 22.2077 23.4962 23.3431 22.1003 23.3431Z" fill="#FF9923"/>
<path d="M16.4753 18.2806C15.9447 18.2806 15.4529 18.4462 15.0455 18.7263C14.9903 18.4735 14.776 18.2806 14.5066 18.2806C14.1957 18.2806 13.9441 18.5322 13.9441 18.8431V20.8119C13.9441 22.2077 15.0795 23.3431 16.4753 23.3431C17.8712 23.3431 19.0066 22.2077 19.0066 20.8119C19.0066 19.416 17.8712 18.2806 16.4753 18.2806ZM16.4753 22.2181C15.6997 22.2181 15.0691 21.5875 15.0691 20.8119C15.0691 20.0363 15.6997 19.4056 16.4753 19.4056C17.251 19.4056 17.8816 20.0363 17.8816 20.8119C17.8816 21.5875 17.251 22.2181 16.4753 22.2181Z" fill="#FF9923"/>
<path d="M22.1003 23.3438C20.7045 23.3438 19.5691 22.2083 19.5691 20.8125V18C19.5691 16.6042 20.7045 15.4688 22.1003 15.4688C23.4962 15.4688 24.6316 16.6042 24.6316 18V20.8125C24.6316 22.2083 23.4962 23.3438 22.1003 23.3438ZM22.1003 16.5938C21.3247 16.5938 20.6941 17.2244 20.6941 18V20.8125C20.6941 21.5881 21.3247 22.2188 22.1003 22.2188C22.876 22.2188 23.5066 21.5881 23.5066 20.8125V18C23.5066 17.2244 22.876 16.5938 22.1003 16.5938Z" fill="#FF9923"/>
<path d="M16.4753 18.2812C15.9552 18.2812 15.4717 18.4397 15.0691 18.7097V18C15.0691 17.2244 15.6997 16.5938 16.4753 16.5938C16.8461 16.5938 17.196 16.7366 17.4603 16.9964C17.6822 17.214 18.0382 17.2112 18.2557 16.9898C18.4738 16.7685 18.4705 16.4119 18.2491 16.1944C17.7729 15.7264 17.1433 15.4688 16.4753 15.4688C15.0795 15.4688 13.9441 16.6042 13.9441 18V20.8125C13.9441 22.2083 15.0795 23.3438 16.4753 23.3438C17.8712 23.3438 19.0066 22.2083 19.0066 20.8125C19.0066 19.4167 17.8712 18.2812 16.4753 18.2812ZM16.4753 22.2188C15.6997 22.2188 15.0691 21.5881 15.0691 20.8125C15.0691 20.0369 15.6997 19.4062 16.4753 19.4062C17.251 19.4062 17.8816 20.0369 17.8816 20.8125C17.8816 21.5881 17.251 22.2188 16.4753 22.2188Z" fill="#FF9923"/>
<path d="M10.8504 19.4072C10.5395 19.4072 10.2879 19.1556 10.2879 18.8447C10.2879 18.5337 10.5395 18.2822 10.8504 18.2822C11.3156 18.2822 11.6941 17.9037 11.6941 17.4384C11.6941 16.9731 11.3156 16.5947 10.8504 16.5947C10.6658 16.5947 10.4912 16.6529 10.345 16.7628C10.0961 16.9506 9.74401 16.8995 9.55726 16.6518C9.37051 16.4035 9.41994 16.0509 9.66822 15.8641C10.011 15.6059 10.4197 15.4697 10.8504 15.4697C11.9359 15.4697 12.8191 16.3531 12.8191 17.4385C12.8191 18.5239 11.9359 19.4072 10.8504 19.4072Z" fill="#FF9923"/>
<path d="M25.7566 16.0312C24.8261 16.0312 24.0691 15.2743 24.0691 14.3438C24.0691 13.4132 24.8261 12.6562 25.7566 12.6562C26.6871 12.6562 27.4441 13.4132 27.4441 14.3438C27.4441 15.2743 26.6871 16.0312 25.7566 16.0312ZM25.7566 13.7812C25.4462 13.7812 25.1941 14.0334 25.1941 14.3438C25.1941 14.6541 25.4462 14.9062 25.7566 14.9062C26.067 14.9062 26.3191 14.6541 26.3191 14.3438C26.3191 14.0334 26.067 13.7812 25.7566 13.7812Z" fill="#FF9923"/>
<path fill-rule="evenodd" clip-rule="evenodd" d="M10.0153 61.6647L7.35057 59L6 60.3506L10.0153 64.3659L14.0306 60.3506L12.68 59L10.0153 61.6647Z" fill="#103178"/>
<path d="M12 99C9.30764 98.4634 6.88455 97.0103 5.14327 94.8879C3.402 92.7656 2.4502 90.1053 2.44995 87.36V79.91L12 78L21.5499 79.91V87.36C21.5497 90.1053 20.5979 92.7656 18.8566 94.8879C17.1154 97.0103 14.6923 98.4634 12 99Z" stroke="#12A05C" stroke-width="1.91" stroke-miterlimit="10"/>
<path d="M7.22998 87.43L10.81 91.01L16.77 85.04" stroke="#12A05C" stroke-width="1.91" stroke-miterlimit="10"/>
<path fill-rule="evenodd" clip-rule="evenodd" d="M35 53.0016L28.556 60.4346L25 56.3185L26.3609 54.7542L28.5584 57.2979L33.6415 51.4346L35 53.0016Z" fill="white"/>
<defs>
<clipPath id="clip0">
<rect width="36" height="36" fill="white"/>
</clipPath>
</defs>
</svg>
