<svg width="30" height="17" viewBox="0 0 30 17" fill="none" xmlns="http://www.w3.org/2000/svg">
<rect width="30" height="12" rx="2" fill="#12A05C"/>
<path d="M7.40192 15.5L8.15192 9.00481L12.6519 11.6029L7.40192 15.5Z" fill="#12A05C"/>
<path d="M11.592 3.4V6.872L7.608 3.12V9H8.712V5.528L12.696 9.28V3.4H11.592ZM15.5527 9.08C15.9954 9.08 16.374 8.99467 16.6887 8.824C17.0087 8.648 17.2647 8.38667 17.4567 8.04L16.5527 7.76C16.446 7.936 16.31 8.06933 16.1447 8.16C15.9847 8.24533 15.79 8.288 15.5607 8.288C15.358 8.288 15.1847 8.24267 15.0407 8.152C14.8967 8.06133 14.7874 7.93067 14.7127 7.76C14.6434 7.58933 14.6087 7.38133 14.6087 7.136C14.614 6.88 14.6514 6.66667 14.7207 6.496C14.7954 6.32 14.8994 6.18933 15.0327 6.104C15.1714 6.01333 15.342 5.968 15.5447 5.968C15.71 5.968 15.854 6.00533 15.9767 6.08C16.0994 6.15467 16.1927 6.256 16.2567 6.384C16.326 6.512 16.3607 6.66667 16.3607 6.848C16.3607 6.88533 16.35 6.93333 16.3287 6.992C16.3127 7.04533 16.294 7.088 16.2727 7.12L16.5527 6.752H14.1607V7.392H17.4567C17.462 7.36 17.4647 7.31733 17.4647 7.264C17.47 7.21067 17.4727 7.16 17.4727 7.112C17.4727 6.71733 17.398 6.38133 17.2487 6.104C17.0994 5.82133 16.8807 5.608 16.5927 5.464C16.31 5.31467 15.966 5.24 15.5607 5.24C15.1554 5.24 14.8034 5.32 14.5047 5.48C14.206 5.63467 13.974 5.856 13.8087 6.144C13.6487 6.42667 13.5687 6.76533 13.5687 7.16C13.5687 7.54933 13.6487 7.888 13.8087 8.176C13.974 8.45867 14.206 8.68 14.5047 8.84C14.8034 9 15.1527 9.08 15.5527 9.08ZM17.593 5.32L19.401 9.248L20.553 6.904L21.737 9.248L23.537 5.32H22.441L21.625 7.368L20.545 5.04L19.505 7.36L18.697 5.32H17.593Z" fill="white"/>
</svg>
